# Made in Blockbench 4.1.1
mtllib test_block.mtl

o cube
v 0.06250000000000021 0.875 0.9375
v 0.9375000000000002 0.875 0.9374999999999998
v 0.06250000000000021 0.125 0.9375
v 0.9375000000000002 0.125 0.9374999999999998
v 0.06250000000000001 0.875 0.062499999999999986
v 0.9375 0.875 0.06249999999999979
v 0.06250000000000001 0.125 0.062499999999999986
v 0.9375 0.125 0.06249999999999979
v 0.9375000000000002 1 0.9999999999999998
v 1.0000000000000002 1 0.9999999999999998
v 0.9375000000000002 1.165592393275517e-19 0.9999999999999998
v 1.0000000000000002 1.165592393275517e-19 0.9999999999999998
v 0.9375 1 -2.082833763565444e-16
v 1 1 -2.2216116416435884e-16
v 0.9375 -2.256949153578792e-35 -2.0816681711721685e-16
v 1 -2.407412430484045e-35 -2.220446049250313e-16
v 2.220446049250313e-16 1 1
v 0.06250000000000022 1 1
v 2.220446049250313e-16 1.1655923932755173e-19 1
v 0.06250000000000022 1.1655923932755173e-19 1
v 0 1 -1.1655923932755173e-19
v 0.0625 1 -1.399434704714201e-17
v 0 0 0
v 0.0625 -1.504632769052528e-36 -1.3877787807814457e-17
vt 0 1
vt 1 1
vt 1 0.5
vt 0 0.5
vt 1 0
vt 0 0
vt 0 1
vt 1 1
vt 0 0
vt 0 1
vt 1 1
vt 1 0
vt 0 0.5
vt 0 1
vt 1 1
vt 1 0.5
vt 0 1
vt 1 1
vt 1 0.5
vt 0 0.5
vt 0 0.5
vt 0 1
vt 1 1
vt 1 0.5
vt 0 1
vt 1 1
vt 1 0.5
vt 0 0.5
vt 0 0
vt 0 1
vt 0.0625 1
vt 0.0625 0
vt 1 0
vt 0 0
vt 0 1
vt 1 1
vt 0 0
vt 0 1
vt 1 1
vt 1 0
vt 0 0.5
vt 0 1
vt 1 1
vt 1 0.5
vt 0 1
vt 1 1
vt 1 0.5
vt 0 0.5
vt 0 1
vt 1 1
vt 1 0.5
vt 0 0.5
vt 0 0.5
vt 0 1
vt 1 1
vt 1 0.5
vt 1 0
vt 0 0
vt 0 1
vt 1 1
vt 0 0
vt 0 1
vt 1 1
vt 1 0
vt 0 0.5
vt 0 1
vt 1 1
vt 1 0.5
vt 0 1
vt 1 1
vt 1 0.5
vt 0 0.5
vn 2.220446049250313e-16 1.1655923932755173e-19 1
vn -1.8072259420079484e-36 1 -1.1655923932755173e-19
vn 1.8072259420079484e-36 -1 1.1655923932755173e-19
vn -1 2.5881350246848397e-35 2.220446049250313e-16
vn 1 -2.5881350246848397e-35 -2.220446049250313e-16
vn -2.220446049250313e-16 -1.1655923932755173e-19 -1
vn 2.220446049250313e-16 1.1655923932755173e-19 1
vn -2.220446049250313e-16 -1.1655923932755173e-19 -1
vn -1.8072259420079484e-36 1 -1.1655923932755173e-19
vn 1.8072259420079484e-36 -1 1.1655923932755173e-19
vn -1 2.5881350246848397e-35 2.220446049250313e-16
vn 1 -2.5881350246848397e-35 -2.220446049250313e-16
vn 2.220446049250313e-16 1.1655923932755173e-19 1
vn -2.220446049250313e-16 -1.1655923932755173e-19 -1
vn -1.8072259420079484e-36 1 -1.1655923932755173e-19
vn 1.8072259420079484e-36 -1 1.1655923932755173e-19
vn -1 2.5881350246848397e-35 2.220446049250313e-16
vn 1 -2.5881350246848397e-35 -2.220446049250313e-16
usemtl m_0
f 2/1/1 1/2/1 3/3/1 4/4/1
f 5/5/2 1/6/2 2/7/2 6/8/2
f 4/9/3 3/10/3 7/11/3 8/12/3
usemtl none
f 3/13/4 1/14/4 5/15/4 7/16/4
f 6/17/5 2/18/5 4/19/5 8/20/5
usemtl m_0
f 7/21/6 5/22/6 6/23/6 8/24/6
f 10/25/7 9/26/7 11/27/7 12/28/7
f 15/29/8 13/30/8 14/31/8 16/32/8
f 13/33/9 9/34/9 10/35/9 14/36/9
f 12/37/10 11/38/10 15/39/10 16/40/10
f 11/41/11 9/42/11 13/43/11 15/44/11
f 14/45/12 10/46/12 12/47/12 16/48/12
f 18/49/13 17/50/13 19/51/13 20/52/13
f 23/53/14 21/54/14 22/55/14 24/56/14
f 21/57/15 17/58/15 18/59/15 22/60/15
f 20/61/16 19/62/16 23/63/16 24/64/16
f 19/65/17 17/66/17 21/67/17 23/68/17
f 22/69/18 18/70/18 20/71/18 24/72/18